HIERARCHY
ROOT Hips
{
	OFFSET 0.000000 0.000000 0.000000
	CHANNELS 6 Xposition Yposition Zposition Zrotation Yrotation Xrotation 
	JOINT LHipJoint
	{
		OFFSET 0.000000 0.000000 0.000000
		CHANNELS 3 Zrotation Yrotation Xrotation
		JOINT LeftUpLeg
		{
			OFFSET 1.363060 -1.794630 0.839290
			CHANNELS 3 Zrotation Yrotation Xrotation
			JOINT LeftLeg
			{
				OFFSET 2.448110 -6.726130 0.000000
				CHANNELS 3 Zrotation Yrotation Xrotation
				JOINT LeftFoot
				{
					OFFSET 2.562200 -7.039590 0.000000
					CHANNELS 3 Zrotation Yrotation Xrotation
					JOINT LeftToeBase
					{
						OFFSET 0.157640 -0.433110 2.322550
						CHANNELS 3 Zrotation Yrotation Xrotation
						End Site
						{
							OFFSET 0.000000 0.000000 0.000000
						}
					}
				}
			}
		}
	}
	JOINT RHipJoint
	{
		OFFSET 0.000000 0.000000 0.000000
		CHANNELS 3 Zrotation Yrotation Xrotation
		JOINT RightUpLeg
		{
			OFFSET -1.305520 -1.794630 0.839290
			CHANNELS 3 Zrotation Yrotation Xrotation
			JOINT RightLeg
			{
				OFFSET -2.542530 -6.985550 0.000000
				CHANNELS 3 Zrotation Yrotation Xrotation
				JOINT RightFoot
				{
					OFFSET -2.568260 -7.056230 0.000000
					CHANNELS 3 Zrotation Yrotation Xrotation
					JOINT RightToeBase
					{
						OFFSET -0.164730 -0.452590 2.363150
						CHANNELS 3 Zrotation Yrotation Xrotation
						End Site
						{
							OFFSET 0.000000 0.000000 0.000000
						}
					}
				}
			}
		}
	}
	JOINT LowerBack
	{
		OFFSET 0.000000 0.000000 0.000000
		CHANNELS 3 Zrotation Yrotation Xrotation
		JOINT Spine
		{
			OFFSET 0.028270 2.035590 -0.193380
			CHANNELS 3 Zrotation Yrotation Xrotation
			JOINT Spine1
			{
				OFFSET 0.056720 2.048850 -0.042750
				CHANNELS 3 Zrotation Yrotation Xrotation
				JOINT Neck
				{
					OFFSET 0.000000 0.000000 0.000000
					CHANNELS 3 Zrotation Yrotation Xrotation
					JOINT Neck1
					{
						OFFSET -0.054170 1.746240 0.172020
						CHANNELS 3 Zrotation Yrotation Xrotation
						JOINT Head
						{
							OFFSET 0.104070 1.761360 -0.123970
							CHANNELS 3 Zrotation Yrotation Xrotation
							End Site
							{
								OFFSET 0.000000 0.000000 0.000000
							}
						}
					}
				}
				JOINT LeftShoulder
				{
					OFFSET 0.000000 0.000000 0.000000
					CHANNELS 3 Zrotation Yrotation Xrotation
					JOINT LeftArm
					{
						OFFSET 3.362410 1.200890 -0.311210
						CHANNELS 3 Zrotation Yrotation Xrotation
						JOINT LeftForeArm
						{
							OFFSET 4.983000 -0.000000 -0.000000
							CHANNELS 3 Zrotation Yrotation Xrotation
							JOINT LeftHand
							{
								OFFSET 3.483560 -0.000000 -0.000000
								CHANNELS 3 Zrotation Yrotation Xrotation
								JOINT LeftFingerBase
								{
									OFFSET 0.000000 0.000000 0.000000
									CHANNELS 3 Zrotation Yrotation Xrotation
									JOINT LeftHandIndex1
									{
										OFFSET 0.715260 -0.000000 -0.000000
										CHANNELS 3 Zrotation Yrotation Xrotation
										End Site
										{
											OFFSET 0.000000 0.000000 0.000000
										}
									}
								}
								JOINT LThumb
								{
									OFFSET 0.000000 0.000000 0.000000
									CHANNELS 3 Zrotation Yrotation Xrotation
									End Site
									{
										OFFSET 0.000000 0.000000 0.000000
									}
								}
							}
						}
					}
				}
				JOINT RightShoulder
				{
					OFFSET 0.000000 0.000000 0.000000
					CHANNELS 3 Zrotation Yrotation Xrotation
					JOINT RightArm
					{
						OFFSET -3.136600 1.374050 -0.404650
						CHANNELS 3 Zrotation Yrotation Xrotation
						JOINT RightForeArm
						{
							OFFSET -5.241900 -0.000000 -0.000000
							CHANNELS 3 Zrotation Yrotation Xrotation
							JOINT RightHand
							{
								OFFSET -3.444170 -0.000000 -0.000000
								CHANNELS 3 Zrotation Yrotation Xrotation
								JOINT RightFingerBase
								{
									OFFSET 0.000000 0.000000 0.000000
									CHANNELS 3 Zrotation Yrotation Xrotation
									JOINT RightHandIndex1
									{
										OFFSET -0.622530 -0.000000 -0.000000
										CHANNELS 3 Zrotation Yrotation Xrotation
										End Site
										{
											OFFSET 0.000000 0.000000 0.000000
										}
									}
								}
								JOINT RThumb
								{
									OFFSET 0.000000 0.000000 0.000000
									CHANNELS 3 Zrotation Yrotation Xrotation
									End Site
									{
										OFFSET 0.000000 0.000000 0.000000
									}
								}
							}
						}
					}
				}
			}
		}
	}
}
MOTION
Frames: 11
Frame Time: 0.016667
1.160539 17.915390 -0.636035 1.315944 -5.168336 1.587761 -30.770860 -15.991628 -9.566510 18.162885 2.136039 -16.930927 3.661426 16.909801 27.366452 0.548130 12.053798 27.168368 0.000000 0.000000 0.000000 -0.292996 -7.261748 -7.117829 26.866718 8.552662 13.721735 48.928489 1.331700 39.801905 127.064458 -51.460178 -77.990479 0.000000 0.000000 0.000000 27.655743 10.605026 22.589520 -9.515780 3.127479 5.694411 -17.783002 5.180784 -1.201655 -2.581147 2.593592 -17.143938 2.282947 0.455771 0.645081 0.000000 0.000000 0.000000 -0.139388 -3.713062 4.082938 -70.676066 -19.200737 -0.848551 -61.731145 -14.321003 -0.202247 0.259721 -2.597147 -0.101344 0.266995 -2.602139 -0.000000 0.000000 0.000000 0.000000 0.000000 0.000000 0.000000 -14.020668 2.435995 6.716231 63.418734 19.752594 0.909666 -3.500631 48.647134 -0.335204 -4.101344 4.944954 -0.168743 -4.129430 4.936226 0.000000 0.000000 0.000000 0.000000 0.000000 0.000000 0.000000 
0.878038 18.069360 -0.452459 -0.351498 -2.778465 -3.164544 -28.771366 -12.647740 -5.242768 16.808576 -0.597895 -17.888900 4.132136 16.541702 29.722321 1.720046 11.781653 31.684534 0.000000 0.000000 0.000000 -4.948387 -8.994657 -14.332538 26.694225 -11.037215 14.150082 58.774596 6.824130 40.434327 137.917313 -24.966969 -104.612340 0.000000 0.000000 0.000000 25.972726 7.823351 20.800964 -4.326345 2.113887 24.021580 -19.525623 0.311726 -13.096181 -1.850884 1.555840 -20.430368 3.598641 0.542318 1.401684 0.000000 0.000000 0.000000 -5.845065 -4.148225 2.275927 -70.926751 -20.415267 -1.992538 -36.658822 -9.313467 -0.131504 -0.517057 -2.364234 -0.065829 -0.513866 -2.366595 -0.000000 0.000000 0.000000 0.000000 0.000000 0.000000 0.000000 -12.481465 -0.014143 4.908287 68.800488 21.053034 6.491909 6.120469 53.865140 -0.427126 -4.197838 5.987822 -0.215501 -4.242862 5.977016 0.000000 0.000000 0.000000 0.000000 0.000000 0.000000 0.000000 
0.597748 18.225148 -0.270430 -6.903260 1.620186 -16.430205 -22.801094 -5.913665 5.197431 13.553174 -4.497317 -15.959842 5.398392 15.078923 32.003655 2.130673 11.184852 36.811301 0.000000 0.000000 0.000000 -19.645715 -21.096103 -49.116553 74.341764 -36.503885 23.118110 -155.701901 -59.682081 -153.369304 89.020212 2.016296 -69.582994 0.000000 0.000000 0.000000 25.582162 -0.599021 30.259701 3.376569 -2.685834 39.509221 -20.773747 -4.148837 -24.821200 5.480898 -0.032192 -17.249098 1.433838 0.177932 2.863716 0.000000 0.000000 0.000000 -14.154067 -2.122046 -0.997040 -68.758462 -22.955987 -0.304866 -16.388606 -4.836320 -0.024172 -1.383562 -2.089343 -0.012100 -1.382914 -2.089746 -0.000000 0.000000 0.000000 0.000000 0.000000 0.000000 0.000000 -13.173407 -3.969958 -0.243731 77.990768 22.687615 12.886154 15.908780 51.871630 -0.306777 -3.015753 7.796780 -0.155814 -3.068378 7.789985 0.000000 0.000000 0.000000 0.000000 0.000000 0.000000 0.000000 
0.569494 18.235438 -0.025903 -1.660296 1.207465 -6.932665 -25.709857 -8.994099 -0.945024 12.196882 -3.624890 -16.438939 4.942522 14.086441 30.770116 1.892831 10.328604 33.020363 0.000000 0.000000 0.000000 -2.867576 -12.642643 -29.882663 31.148509 -19.090021 -0.872591 76.040921 -54.243885 26.579441 77.214692 -25.642455 -34.100450 0.000000 0.000000 0.000000 18.933763 2.441890 24.627400 6.410242 -2.167012 39.197388 -24.436633 -3.794720 -25.546777 3.740624 0.836098 -12.136053 3.747488 0.464349 2.229644 0.000000 0.000000 0.000000 -13.727648 0.301208 -0.999890 -73.825552 -23.440267 0.224054 -17.307122 -8.226370 0.005483 -2.570943 -1.504667 0.002739 -2.570915 -1.504904 0.000000 0.000000 0.000000 0.000000 0.000000 0.000000 0.000000 -15.076572 -9.315748 -2.280153 79.338112 22.052238 13.174592 24.428006 48.505034 -0.391356 -3.117261 7.375736 -0.197869 -3.170027 7.369881 0.000000 0.000000 0.000000 0.000000 0.000000 0.000000 0.000000 
0.544136 18.245775 0.217558 -0.457025 0.988405 -2.917020 -26.507079 -8.219567 -2.849928 11.929434 -3.456764 -18.476250 5.164360 12.234859 28.813416 1.422588 8.931412 28.697948 0.000000 0.000000 0.000000 1.964969 -9.575950 -19.775238 19.567950 -25.766844 1.344555 86.375473 7.791896 58.654847 140.447285 -26.841741 -92.874440 0.000000 0.000000 0.000000 17.390386 5.324482 23.456113 9.957408 -1.955323 36.759266 -27.286098 -3.497320 -25.871017 3.229074 1.431616 -6.746375 5.387783 0.697267 1.440715 0.000000 0.000000 0.000000 -14.413769 2.507598 -0.384222 -77.880635 -22.470899 2.391960 -19.575244 -13.914649 0.113106 -4.022163 -0.164645 0.056620 -4.022997 -0.164572 0.000000 0.000000 0.000000 0.000000 0.000000 0.000000 0.000000 -16.431681 -14.453410 -4.250202 79.564805 20.620692 13.160138 31.596357 45.231774 -0.457425 -3.294643 6.961490 -0.230657 -3.346148 6.956373 0.000000 0.000000 0.000000 0.000000 0.000000 0.000000 0.000000 
0.187506 18.271160 0.415075 -1.022984 6.138422 -3.858676 -20.920677 -5.181035 -1.984218 4.649802 -6.091196 -15.618533 4.656043 7.851091 24.769645 1.135833 6.950119 26.667159 0.000000 0.000000 0.000000 5.700559 -12.585168 -22.063734 19.972191 -23.823807 -3.644830 89.425338 -8.164620 49.352297 110.588158 -32.964977 -60.264107 0.000000 0.000000 0.000000 9.321711 3.539064 22.002162 20.254545 -5.993470 41.961009 -31.684305 -4.275831 -29.663762 0.347245 2.780781 -8.994940 8.422090 1.193631 1.141876 0.000000 0.000000 0.000000 -12.792251 3.310555 -0.166799 -82.380274 -21.368723 4.469366 -19.994045 -17.225454 0.180488 -5.650164 1.039506 0.090430 -5.650738 1.039631 0.000000 0.000000 0.000000 0.000000 0.000000 0.000000 0.000000 -18.985247 -16.988164 -4.308144 83.482086 21.001810 9.856197 33.651320 37.191760 -0.434278 -3.112338 7.498511 -0.218914 -3.161545 7.493990 0.000000 0.000000 0.000000 0.000000 0.000000 0.000000 0.000000 
0.013286 18.296886 0.611148 -3.133267 10.208425 -7.763970 -14.899654 -2.781296 0.500008 -2.476386 -7.382523 -10.175242 4.486032 3.618020 19.216062 0.663761 5.581207 25.742601 0.000000 0.000000 0.000000 0.974360 -22.293217 -29.803935 23.092997 -28.559836 -4.223954 90.588052 -73.339339 17.263512 61.465705 -13.714528 -29.770978 0.000000 0.000000 0.000000 5.705650 0.407797 23.265649 27.950800 -10.468024 44.743910 -36.880437 -5.559100 -30.525183 -3.299540 4.392367 -10.087599 11.815360 1.847444 0.591972 0.000000 0.000000 0.000000 -10.845966 2.120350 0.335907 -86.963919 -20.455559 6.366366 -19.662229 -19.035971 0.135212 -7.860174 2.108427 0.067890 -7.859433 2.108540 0.000000 0.000000 0.000000 0.000000 0.000000 0.000000 0.000000 -22.299853 -18.380921 -4.064625 87.314790 21.208199 6.645652 33.890555 29.923056 -0.411187 -3.037509 7.819693 -0.207161 -3.083086 7.815355 -0.000000 0.000000 0.000000 0.000000 0.000000 0.000000 0.000000 
-0.042226 18.326605 0.772900 -8.033827 17.172369 -14.644098 -9.936537 -1.911925 3.604716 -6.716488 -8.095574 -4.949106 5.319998 -0.543800 13.602435 -0.153853 4.496855 26.701860 0.000000 0.000000 0.000000 -13.919064 -21.836965 -40.954585 50.674245 -50.120718 19.566774 -121.104686 -65.725889 -170.863731 55.809058 -2.989390 -48.000096 0.000000 0.000000 0.000000 7.943485 -3.934989 24.846682 32.800189 -14.809168 45.153090 -39.424218 -7.005943 -30.497666 -6.075282 5.559167 -11.993629 13.909848 2.305819 0.398643 0.000000 0.000000 0.000000 -9.520970 0.009542 1.044889 -89.051628 -21.311526 5.587428 -23.331654 -16.973469 0.011060 -8.099535 1.978097 0.005787 -8.098512 1.980702 -0.000000 0.000000 0.000000 0.000000 0.000000 0.000000 0.000000 -23.665730 -18.786656 -3.654232 88.691187 21.354756 5.016602 33.118100 26.031280 -0.383538 -2.962809 7.896892 -0.193184 -3.004954 7.892686 -0.000000 0.000000 0.000000 0.000000 0.000000 0.000000 0.000000 
-0.096792 18.355928 0.931937 -6.015911 17.684801 -8.516653 -6.501897 -1.340302 1.114212 -10.738367 -8.192453 -3.898542 5.512897 -3.403402 6.766407 0.108498 5.094700 29.150808 0.000000 0.000000 0.000000 -8.637931 -11.923878 -33.244150 44.313799 -33.088488 14.833373 -154.744607 -46.695482 179.995888 55.681726 -14.156412 -50.233146 0.000000 0.000000 0.000000 4.576341 -3.851186 21.211644 36.416270 -15.826043 45.037981 -42.858489 -6.555815 -31.013342 -9.212802 6.651416 -14.560513 16.083573 2.811194 0.014708 0.000000 0.000000 0.000000 -8.231962 -0.603032 2.012972 -90.544445 -22.613628 3.602001 -27.469542 -14.073240 -0.162951 -8.153820 1.829914 -0.081418 -8.153963 1.834987 -0.000000 0.000000 0.000000 0.000000 0.000000 0.000000 0.000000 -24.382197 -19.038004 -3.681923 90.623091 21.445178 3.858909 32.271828 22.192466 -0.351807 -2.877721 7.884238 -0.177167 -2.916019 7.880169 -0.000000 0.000000 0.000000 0.000000 0.000000 0.000000 0.000000 
-0.138898 18.390133 1.074171 -8.242995 20.678966 -15.857433 -4.605645 0.029887 5.513450 -12.798387 -7.404108 0.788383 6.483521 -6.364412 1.140154 -0.105020 5.235785 32.707981 0.000000 0.000000 0.000000 -16.403857 -16.713312 -45.141829 48.388628 -56.575117 22.505352 -155.447968 -55.028068 168.539185 47.873101 6.503953 -72.178424 0.000000 0.000000 0.000000 4.273379 -5.014340 24.645956 40.344258 -18.277838 44.798157 -45.209338 -7.603022 -30.843733 -11.318006 7.695268 -15.583513 17.859814 3.286956 -0.458257 0.000000 0.000000 0.000000 -8.413074 -2.400574 1.739205 -89.675843 -19.661750 7.737077 -31.024132 -21.477562 -0.011880 -7.089189 3.270269 -0.005394 -7.084613 3.279916 0.000000 0.000000 0.000000 0.000000 0.000000 0.000000 0.000000 -24.771465 -18.428359 -2.491560 90.023580 20.595781 3.107997 30.877142 22.502115 -0.340961 -3.002178 7.545257 -0.171619 -3.037340 7.540887 -0.000000 0.000000 0.000000 0.000000 0.000000 0.000000 0.000000 
-0.180896 18.423635 1.213700 -10.669730 23.240518 -21.649829 -2.493004 1.135458 8.877475 -13.711749 -6.665773 4.458859 6.896479 -9.044221 -4.488978 -0.234273 5.690430 36.967928 0.000000 0.000000 0.000000 -23.533850 -21.994197 -54.653740 35.286325 -76.558150 27.817909 -136.921444 -75.785567 155.922705 23.317460 32.203418 -85.200026 0.000000 0.000000 0.000000 4.188049 -6.118154 27.502987 44.648903 -20.087254 43.302391 -48.161409 -8.662228 -31.144954 -13.384473 9.101336 -15.669638 20.277336 3.907674 -1.028264 0.000000 0.000000 0.000000 -9.469413 -4.876839 -0.870220 -88.337492 -13.505426 18.088086 -30.150167 -37.226114 0.337356 -4.798748 5.156253 0.169599 -4.784338 5.169963 -0.000000 0.000000 0.000000 0.000000 0.000000 0.000000 0.000000 -24.789563 -16.631314 -0.825438 89.622713 19.621900 2.348505 29.240573 22.757378 -0.325712 -3.128235 7.192484 -0.163864 -3.160022 7.187850 -0.000000 0.000000 0.000000 0.000000 0.000000 0.000000 0.000000 
